<?xml version="1.0" standalone="no"?>
<!DOCTYPE svg PUBLIC "-//W3C//DTD SVG 20010904//EN"
 "http://www.w3.org/TR/2001/REC-SVG-20010904/DTD/svg10.dtd">
<svg version="1.0" xmlns="http://www.w3.org/2000/svg"
 width="433.000000pt" height="158.000000pt" viewBox="0 0 433.000000 158.000000"
 preserveAspectRatio="xMidYMid meet">

<g transform="translate(0.000000,158.000000) scale(0.100000,-0.100000)"
fill="#000000" stroke="none">
<path d="M130 725 l0 -355 105 0 105 0 0 145 0 145 60 0 60 0 0 70 0 70 -60 0
-60 0 0 65 0 65 65 0 65 0 0 75 0 75 -170 0 -170 0 0 -355z"/>
<path d="M1610 725 l0 -357 188 3 c280 6 272 -4 272 343 0 276 -6 303 -73 338
-35 18 -65 21 -214 26 l-173 5 0 -358z m240 199 c11 -28 14 -333 4 -382 -3
-17 -12 -33 -20 -36 -12 -4 -14 32 -14 219 0 221 6 262 30 199z"/>
<path d="M2140 1030 l0 -50 105 0 105 0 0 50 0 50 -105 0 -105 0 0 -50z"/>
<path d="M2440 985 c0 -38 -3 -45 -20 -45 -17 0 -20 -7 -20 -50 0 -43 3 -50
19 -50 19 0 20 -10 23 -205 l3 -205 27 -27 c26 -25 35 -28 128 -31 l100 -4 0
50 c0 45 -3 51 -22 54 -23 3 -23 5 -26 186 l-2 182 25 0 c23 0 25 3 25 50 0
47 -2 50 -25 50 -23 0 -25 4 -25 45 l0 45 -105 0 -105 0 0 -45z"/>
<path d="M2760 985 c0 -38 -3 -45 -20 -45 -17 0 -20 -7 -20 -50 0 -43 3 -50
19 -50 19 0 20 -10 23 -205 l3 -205 27 -27 c26 -25 35 -28 128 -31 l100 -4 0
50 c0 45 -3 51 -22 54 -23 3 -23 5 -26 186 l-2 182 25 0 c23 0 25 3 25 50 0
47 -2 50 -25 50 -23 0 -25 4 -25 45 l0 45 -105 0 -105 0 0 -45z"/>
<path d="M3950 985 c0 -38 -3 -45 -20 -45 -17 0 -20 -7 -20 -50 0 -43 3 -50
19 -50 19 0 20 -10 23 -205 l3 -205 27 -27 c26 -25 35 -28 128 -31 l100 -4 0
50 c0 45 -3 51 -22 54 -23 3 -23 5 -26 186 l-2 182 25 0 c23 0 25 3 25 50 0
47 -2 50 -25 50 -23 0 -25 4 -25 45 l0 45 -105 0 -105 0 0 -45z"/>
<path d="M650 949 c-103 -32 -120 -74 -120 -295 0 -192 10 -223 84 -265 35
-21 54 -24 136 -24 108 1 142 13 186 70 21 28 28 50 32 105 l5 70 -102 0 -101
0 0 -64 c0 -60 -11 -88 -28 -71 -4 4 -9 42 -11 86 l-3 79 122 0 123 0 -6 94
c-7 120 -31 167 -106 206 -32 16 -167 22 -211 9z m110 -160 c0 -37 -4 -49 -15
-49 -16 0 -20 44 -9 87 10 37 24 15 24 -38z"/>
<path d="M1275 944 c-19 -10 -31 -11 -33 -5 -2 7 -43 11 -108 11 l-104 0 0
-290 0 -290 105 0 105 0 0 165 c0 163 0 166 25 190 15 16 36 25 55 25 l30 0 0
105 c0 102 -1 105 -22 105 -13 0 -36 -7 -53 -16z"/>
<path d="M3190 949 c-103 -32 -120 -74 -120 -295 0 -192 10 -223 84 -265 35
-21 54 -24 136 -24 108 1 142 13 186 70 21 28 28 50 32 105 l5 70 -102 0 -101
0 0 -64 c0 -60 -11 -88 -28 -71 -4 4 -9 42 -11 86 l-3 79 122 0 123 0 -6 94
c-7 120 -31 167 -106 206 -32 16 -167 22 -211 9z m110 -160 c0 -37 -4 -49 -15
-49 -16 0 -20 44 -9 87 10 37 24 15 24 -38z"/>
<path d="M3825 944 c-19 -10 -31 -11 -33 -5 -2 7 -43 11 -108 11 l-104 0 0
-290 0 -290 105 0 105 0 0 165 c0 163 0 166 25 190 15 16 36 25 55 25 l30 0 0
105 c0 102 -1 105 -22 105 -13 0 -36 -7 -53 -16z"/>
<path d="M2140 660 l0 -290 105 0 105 0 0 290 0 290 -105 0 -105 0 0 -290z"/>
</g>
</svg>
